<svg width="200" height="180" viewBox="0 0 200 180" fill="none" xmlns="http://www.w3.org/2000/svg">
<path d="M68.4196 21.1611V11.1486C68.4196 4.99115 63.1851 0 56.7278 0H11.6922C5.23451 0 0 4.99115 0 11.1486V131.524C0 140.296 7.45765 147.407 16.6569 147.407H183.343C192.542 147.407 200 140.296 200 131.524V41.8953C200 33.1238 192.542 26.0128 183.343 26.0128H73.5078C70.6977 26.0128 68.4196 23.8407 68.4196 21.1611V21.1611Z" fill="url(#paint0_linear)"/>
<path d="M151.889 47.8625H147.878C145.577 47.8625 143.712 46.0842 143.712 43.8903V40.0655C143.712 37.8716 145.577 36.0933 147.878 36.0933H151.889C154.19 36.0933 156.055 37.8716 156.055 40.0655V43.8903C156.055 46.0842 154.19 47.8625 151.889 47.8625Z" fill="#0078FC"/>
<path d="M167.627 47.8625H163.615C161.315 47.8625 159.449 46.0842 159.449 43.8903V40.0655C159.449 37.8716 161.315 36.0933 163.615 36.0933H167.627C169.927 36.0933 171.793 37.8716 171.793 40.0655V43.8903C171.793 46.0842 169.927 47.8625 167.627 47.8625Z" fill="#0078FC"/>
<path d="M183.364 47.8625H179.353C177.052 47.8625 175.187 46.0842 175.187 43.8903V40.0655C175.187 37.8716 177.052 36.0933 179.353 36.0933H183.364C185.665 36.0933 187.53 37.8716 187.53 40.0655V43.8903C187.53 46.0842 185.665 47.8625 183.364 47.8625Z" fill="#0078FC"/>
<path d="M0 113.961V131.524C0 140.296 7.45765 147.407 16.6569 147.407H183.343C192.542 147.407 200 140.296 200 131.524V113.961H0Z" fill="url(#paint1_linear)"/>
<path d="M171.875 145.923L108.632 86.9509C104.643 82.0261 98.3525 82.2691 94.7766 87.6885L64.5626 133.93C61.7642 138.171 62.5783 143.013 66.2592 145.704C66.7619 146.324 68.3834 147.452 68.4202 147.496H165.605C167.885 147.496 170.024 146.922 171.875 145.923V145.923Z" fill="url(#paint2_linear)"/>
<path d="M127.799 147.364H119.738V172.868C119.738 176.807 116.664 180 112.871 180H88.916C85.1235 180 82.0488 176.807 82.0488 172.868V147.364H72.3694C65.543 147.364 61.3858 139.559 65.013 133.553L92.7276 87.6587C96.131 82.0229 104.037 82.0229 107.44 87.6587L135.155 133.553C138.782 139.559 134.625 147.364 127.799 147.364Z" fill="#00D047"/>
<defs>
<linearGradient id="paint0_linear" x1="22.7902" y1="13.0892" x2="134.082" y2="129.808" gradientUnits="userSpaceOnUse">
<stop stop-color="#258DFF" stop-opacity="0.37"/>
<stop offset="1" stop-color="#258DFF"/>
</linearGradient>
<linearGradient id="paint1_linear" x1="100" y1="128" x2="100" y2="158.979" gradientUnits="userSpaceOnUse">
<stop stop-color="#258DFF" stop-opacity="0"/>
<stop offset="1" stop-color="#258DFF"/>
</linearGradient>
<linearGradient id="paint2_linear" x1="172.648" y1="115.464" x2="89.416" y2="115.464" gradientUnits="userSpaceOnUse">
<stop stop-color="#258DFF" stop-opacity="0"/>
<stop offset="1" stop-color="#258DFF"/>
</linearGradient>
</defs>
</svg>
