<svg width="140" height="32" viewBox="0 0 140 32" fill="none" xmlns="http://www.w3.org/2000/svg">
<path d="M5 23L16.9861 6.06118C19.0355 3.16491 23.3655 3.26527 25.2785 6.25337L36 23" stroke="black" stroke-width="4"/>
<path d="M48.2305 16.3203V23H45.9805V5.9375H52.2734C54.1406 5.9375 55.6016 6.41406 56.6562 7.36719C57.7188 8.32031 58.25 9.58203 58.25 11.1523C58.25 12.8086 57.7305 14.0859 56.6914 14.9844C55.6602 15.875 54.1797 16.3203 52.25 16.3203H48.2305ZM48.2305 14.4805H52.2734C53.4766 14.4805 54.3984 14.1992 55.0391 13.6367C55.6797 13.0664 56 12.2461 56 11.1758C56 10.1602 55.6797 9.34766 55.0391 8.73828C54.3984 8.12891 53.5195 7.8125 52.4023 7.78906H48.2305V14.4805ZM66.9102 12.2656C66.582 12.2109 66.2266 12.1836 65.8438 12.1836C64.4219 12.1836 63.457 12.7891 62.9492 14V23H60.7812V10.3203H62.8906L62.9258 11.7852C63.6367 10.6523 64.6445 10.0859 65.9492 10.0859C66.3711 10.0859 66.6914 10.1406 66.9102 10.25V12.2656ZM68.1055 16.543C68.1055 15.3008 68.3477 14.1836 68.832 13.1914C69.3242 12.1992 70.0039 11.4336 70.8711 10.8945C71.7461 10.3555 72.7422 10.0859 73.8594 10.0859C75.5859 10.0859 76.9805 10.6836 78.043 11.8789C79.1133 13.0742 79.6484 14.6641 79.6484 16.6484V16.8008C79.6484 18.0352 79.4102 19.1445 78.9336 20.1289C78.4648 21.1055 77.7891 21.8672 76.9062 22.4141C76.0312 22.9609 75.0234 23.2344 73.8828 23.2344C72.1641 23.2344 70.7695 22.6367 69.6992 21.4414C68.6367 20.2461 68.1055 18.6641 68.1055 16.6953V16.543ZM70.2852 16.8008C70.2852 18.207 70.6094 19.3359 71.2578 20.1875C71.9141 21.0391 72.7891 21.4648 73.8828 21.4648C74.9844 21.4648 75.8594 21.0352 76.5078 20.1758C77.1562 19.3086 77.4805 18.0977 77.4805 16.543C77.4805 15.1523 77.1484 14.0273 76.4844 13.168C75.8281 12.3008 74.9531 11.8672 73.8594 11.8672C72.7891 11.8672 71.9258 12.293 71.2695 13.1445C70.6133 13.9961 70.2852 15.2148 70.2852 16.8008ZM85.7656 20.1758H93.2305V23H82.25V5.9375H85.7656V20.1758ZM98.6094 23H95.2109V10.3203H98.6094V23ZM95.0117 7.03906C95.0117 6.53125 95.1797 6.11328 95.5156 5.78516C95.8594 5.45703 96.3242 5.29297 96.9102 5.29297C97.4883 5.29297 97.9492 5.45703 98.293 5.78516C98.6367 6.11328 98.8086 6.53125 98.8086 7.03906C98.8086 7.55469 98.6328 7.97656 98.2812 8.30469C97.9375 8.63281 97.4805 8.79688 96.9102 8.79688C96.3398 8.79688 95.8789 8.63281 95.5273 8.30469C95.1836 7.97656 95.0117 7.55469 95.0117 7.03906ZM104.527 10.3203L104.633 11.7852C105.539 10.6523 106.754 10.0859 108.277 10.0859C109.621 10.0859 110.621 10.4805 111.277 11.2695C111.934 12.0586 112.27 13.2383 112.285 14.8086V23H108.898V14.8906C108.898 14.1719 108.742 13.6523 108.43 13.332C108.117 13.0039 107.598 12.8398 106.871 12.8398C105.918 12.8398 105.203 13.2461 104.727 14.0586V23H101.34V10.3203H104.527ZM120.699 23.2344C118.84 23.2344 117.324 22.6641 116.152 21.5234C114.988 20.3828 114.406 18.8633 114.406 16.9648V16.6367C114.406 15.3633 114.652 14.2266 115.145 13.2266C115.637 12.2188 116.332 11.4453 117.23 10.9062C118.137 10.3594 119.168 10.0859 120.324 10.0859C122.059 10.0859 123.422 10.6328 124.414 11.7266C125.414 12.8203 125.914 14.3711 125.914 16.3789V17.7617H117.84C117.949 18.5898 118.277 19.2539 118.824 19.7539C119.379 20.2539 120.078 20.5039 120.922 20.5039C122.227 20.5039 123.246 20.0312 123.98 19.0859L125.645 20.9492C125.137 21.668 124.449 22.2305 123.582 22.6367C122.715 23.0352 121.754 23.2344 120.699 23.2344ZM120.312 12.8281C119.641 12.8281 119.094 13.0547 118.672 13.5078C118.258 13.9609 117.992 14.6094 117.875 15.4531H122.586V15.1836C122.57 14.4336 122.367 13.8555 121.977 13.4492C121.586 13.0352 121.031 12.8281 120.312 12.8281Z" fill="black"/>
<line y1="30.5" x2="132" y2="30.5" stroke="black" stroke-width="2"/>
</svg>
